
<svg xmlns="http://www.w3.org/2000/svg" xml:space="preserve" width="2000" height="252" data-id="lg_wQSfxeCWTgMJC9jbnW" data-version="1" viewBox="0 0 2000 252"><g data-padding="20"><g transform="translate(10 4.524)scale(.9641)"><rect width="346.241" height="251.99" x="460.066" y="-400.275" fill="none" rx="0" ry="0" transform="translate(507.38 400.28)"/><path d="m996.657 26.57 36.02 113.73 9.81 40.14 5.35-35.01 36.8-116.63h21.07l-46.72 147.18-2.9 22.3-27.43-2.23-53.74-167.25Zm160.34 169.49h-23.42V52.22l-3.34-23.41 26.76-2.23Zm100.91 0h-23.42V46.65h-46.27V28.81h115.4v17.84h-45.71Z"/><path fill="#fff" stroke="#000" stroke-width="6.12" d="M842.407 39.32a85.83 85.83 0 1 0 0 171.66 85.83 85.83 0 1 0 0-171.66Z"/><path d="m860.393 133.492-5.736 3.176a23.92 23.92 0 0 1-23.12 0l-7.04-3.896c.088 3.264-.048 6.736-1.376 9.504-.368.752-1.104 1.44-1.088 2.352.016 1.256 1.44 1.472 2.48 1.28 0 0 6.08-1.168 14.504 7.08.832.824 1.656 1.592 2.792 2 2.216.776 3.864-.576 5.384-2.016a31 31 0 0 1 3.36-2.64c2.784-1.976 6.32-4.448 9.88-4.512 0 0 4.584 1 1.92-3.248 0 0-1.224-3.936-1.96-9.08m-45.296-3.168-1.336 8v10.664h5.336v-10.664l-1.336-8v-7.384l-2.664-1.48Z"/><path d="m877.897 113.628-25.824-14.32a18.48 18.48 0 0 0-17.952 0l-25.824 14.32c-1.6.88-1.6 3.2 0 4.08l6.8 3.76v-5.808h30.664v2.672h-28v4.616l16.36 9.064a18.56 18.56 0 0 0 17.952 0l25.824-14.304c1.6-.888 1.6-3.2 0-4.08m-56.04 23.362c-2.352 0-4.2 1.848-4.2 4.2s1.848 4.2 4.2 4.2 4.2-1.848 4.2-4.2-1.848-4.2-4.2-4.2m0 6.72c-1.428 0-2.52-1.092-2.52-2.52s1.092-2.52 2.52-2.52 2.52 1.092 2.52 2.52-1.092 2.52-2.52 2.52"/></g><path fill="transparent" stroke="transparent" d="M729.464 0h557v252h-557z"/></g></svg>