<svg xmlns="http://www.w3.org/2000/svg" version="1.1" xmlns:xlink="http://www.w3.org/1999/xlink" xmlns:svgjs="http://svgjs.dev/svgjs" width="2000" height="681" viewBox="0 0 2000 681"><g transform="matrix(1,0,0,1,-1.2121212121212466,-0.9624213039570009)"><svg viewBox="0 0 396 135" data-background-color="#293040" preserveAspectRatio="xMidYMid meet" height="681" width="2000" xmlns="http://www.w3.org/2000/svg" xmlns:xlink="http://www.w3.org/1999/xlink"><g id="tight-bounds" transform="matrix(1,0,0,1,0.2400000000000091,0.1910148544420167)"><svg viewBox="0 0 395.52 134.61819678133747" height="134.61819678133747" width="395.52"><g><svg viewBox="0 0 654.702916811644 222.8330453293525" height="134.61819678133747" width="395.52"><g transform="matrix(1,0,0,1,0,80.62146388505319)"><svg viewBox="0 0 395.52 61.59011755924613" height="61.59011755924613" width="395.52"><g id="textblocktransform"><svg viewBox="0 0 395.52 61.59011755924613" height="61.59011755924613" width="395.52" id="textblock"><g><svg viewBox="0 0 395.52 61.59011755924613" height="61.59011755924613" width="395.52"><g transform="matrix(1,0,0,1,0,0)"><svg width="395.52" viewBox="2.13 -33.13 267.92 41.730000000000004" height="61.59011755924613" data-palette-color="#0369a1"><path d="M12.68 0.58L12.68 0.58Q10.38 0.58 8.46 0.2 6.55-0.18 5.05-0.73 3.55-1.28 2.55-1.83L2.55-1.83 2.13-5.95Q4.05-4.8 6.66-3.94 9.28-3.08 12.35-3.08L12.35-3.08Q16.05-3.08 17.82-4.39 19.6-5.7 19.6-8.33L19.6-8.33 19.6-8.72Q19.6-10.45 18.9-11.55 18.2-12.65 16.54-13.4 14.88-14.15 12.03-14.8L12.03-14.8Q8.43-15.65 6.26-16.81 4.1-17.98 3.14-19.73 2.18-21.48 2.18-24.08L2.18-24.08 2.18-24.3Q2.18-28.23 4.75-30.36 7.33-32.5 12.55-32.5L12.55-32.5Q15.98-32.5 18.39-31.8 20.8-31.1 22.33-30.25L22.33-30.25 22.7-26.45Q20.93-27.5 18.56-28.24 16.2-28.98 13.15-28.98L13.15-28.98Q10.73-28.98 9.22-28.4 7.73-27.83 7.05-26.75 6.38-25.68 6.38-24.15L6.38-24.15 6.38-24.05Q6.38-22.5 7.04-21.4 7.7-20.3 9.36-19.5 11.03-18.7 14.1-17.95L14.1-17.95Q17.63-17.13 19.75-16.05 21.88-14.98 22.84-13.25 23.8-11.53 23.8-8.75L23.8-8.75 23.8-8.22Q23.8-3.9 21.01-1.66 18.23 0.58 12.68 0.58ZM38.22 0.5L38.22 0.5Q35.4 0.5 33.67-0.35 31.95-1.2 31.17-2.93 30.4-4.65 30.4-7.23L30.4-7.23 30.4-22.63 34.4-22.63 34.4-7.7Q34.4-5.3 35.5-4.16 36.6-3.03 39.2-3.03L39.2-3.03Q40.67-3.03 42.03-3.35 43.4-3.68 44.6-4.28L44.6-4.28 44.22-0.8Q43.05-0.2 41.47 0.15 39.9 0.5 38.22 0.5ZM44.35-24.05L43.97-20.8 26.4-20.8 26.4-24.05 44.35-24.05ZM34.47-31.03L34.3-23.65 30.42-23.65 30.4-30.5 34.47-31.03ZM48.82-8.78L48.82-24.4 52.85-24.4 52.85-9.22Q52.85-7.3 53.38-5.86 53.92-4.42 55.15-3.64 56.37-2.85 58.45-2.85L58.45-2.85Q60.4-2.85 61.8-3.56 63.2-4.28 64.08-5.53 64.97-6.78 65.3-8.35L65.3-8.35 66.02-5.48 65.15-5.48Q64.77-3.83 63.77-2.46 62.77-1.1 61.08-0.29 59.4 0.53 56.92 0.53L56.92 0.53Q54.05 0.53 52.26-0.56 50.47-1.65 49.65-3.74 48.82-5.83 48.82-8.78L48.82-8.78ZM65.12-6.1L65.12-24.4 69.17-24.4 69.17 0 65.12 0 65.3-5.85 65.12-6.1ZM83.82 0.53L83.82 0.53Q79.42 0.53 77.12-2.2 74.82-4.93 74.82-10.15L74.82-10.15 74.82-14.18Q74.82-19.43 77.14-22.19 79.47-24.95 83.99-24.95L83.99-24.95Q86.24-24.95 87.89-24.19 89.54-23.43 90.57-22.05 91.59-20.68 91.94-18.8L91.94-18.8 93.27-18.8 92.07-15.08Q91.99-17.23 91.11-18.69 90.22-20.15 88.71-20.9 87.19-21.65 85.24-21.65L85.24-21.65Q82.14-21.65 80.51-19.85 78.87-18.05 78.87-14.55L78.87-14.55 78.87-9.9Q78.87-6.45 80.51-4.65 82.14-2.85 85.24-2.85L85.24-2.85Q87.09-2.85 88.52-3.56 89.94-4.28 90.88-5.54 91.82-6.8 92.17-8.4L92.17-8.4 93.17-5.5 91.97-5.5Q91.62-3.85 90.63-2.48 89.64-1.1 87.98-0.29 86.32 0.53 83.82 0.53ZM96.02-33.13L96.02 0 91.97 0 92.14-5.9 92.07-7.2 92.07-17.4 92.09-18.25 91.99-25.18 91.99-33.13 96.02-33.13ZM104.62-24.4L111.27-3.78 113.59-3.78 111.47-2.85 118.77-24.4 122.94-24.4 111.47 8.6 107.37 8.6 111.22-2.55 112.99-1 108.39-1 100.42-24.4 104.62-24.4ZM136.69 0.58L136.69 0.58Q134.39 0.58 132.48 0.2 130.56-0.18 129.06-0.73 127.56-1.28 126.56-1.83L126.56-1.83 126.14-5.95Q128.06-4.8 130.68-3.94 133.29-3.08 136.36-3.08L136.36-3.08Q140.06-3.08 141.84-4.39 143.61-5.7 143.61-8.33L143.61-8.33 143.61-8.72Q143.61-10.45 142.91-11.55 142.21-12.65 140.55-13.4 138.89-14.15 136.04-14.8L136.04-14.8Q132.44-15.65 130.28-16.81 128.11-17.98 127.15-19.73 126.19-21.48 126.19-24.08L126.19-24.08 126.19-24.3Q126.19-28.23 128.76-30.36 131.34-32.5 136.56-32.5L136.56-32.5Q139.99-32.5 142.4-31.8 144.81-31.1 146.34-30.25L146.34-30.25 146.71-26.45Q144.94-27.5 142.58-28.24 140.21-28.98 137.16-28.98L137.16-28.98Q134.74-28.98 133.24-28.4 131.74-27.83 131.06-26.75 130.39-25.68 130.39-24.15L130.39-24.15 130.39-24.05Q130.39-22.5 131.05-21.4 131.71-20.3 133.38-19.5 135.04-18.7 138.11-17.95L138.11-17.95Q141.64-17.13 143.76-16.05 145.89-14.98 146.85-13.25 147.81-11.53 147.81-8.75L147.81-8.75 147.81-8.22Q147.81-3.9 145.03-1.66 142.24 0.58 136.69 0.58ZM165.39 0.53L165.39 0.53Q163.14 0.53 161.49-0.23 159.84-0.98 158.81-2.38 157.79-3.78 157.44-5.63L157.44-5.63 156.11-5.63 157.29-9.43Q157.39-7.23 158.27-5.76 159.16-4.3 160.69-3.58 162.21-2.85 164.14-2.85L164.14-2.85Q167.21-2.85 168.85-4.65 170.49-6.45 170.49-9.93L170.49-9.93 170.49-14.6Q170.49-18.05 168.86-19.85 167.24-21.65 164.14-21.65L164.14-21.65Q162.29-21.65 160.86-20.93 159.44-20.2 158.5-18.95 157.56-17.7 157.21-16.1L157.21-16.1 156.21-18.93 157.39-18.93Q157.79-20.6 158.75-21.96 159.71-23.33 161.4-24.14 163.09-24.95 165.56-24.95L165.56-24.95Q169.96-24.95 172.26-22.21 174.56-19.48 174.56-14.28L174.56-14.28 174.56-10.23Q174.56-4.98 172.25-2.23 169.94 0.53 165.39 0.53ZM157.39 0.68L157.39 8.6 153.36 8.6 153.36-24.4 157.41-24.4 157.24-18.53 157.29-17.28 157.29-7 157.26-6.18 157.39 0.68ZM200.58-15.63L200.58 0 196.53 0 196.53-15.18Q196.53-17.15 196-18.57 195.46-20 194.25-20.79 193.03-21.58 190.93-21.58L190.93-21.58Q189.01-21.58 187.61-20.85 186.21-20.13 185.35-18.89 184.48-17.65 184.13-16.07L184.13-16.07 183.23-18.95 184.28-18.95Q184.66-20.6 185.66-21.96 186.66-23.33 188.35-24.14 190.03-24.95 192.46-24.95L192.46-24.95Q195.36-24.95 197.15-23.85 198.93-22.75 199.76-20.69 200.58-18.63 200.58-15.63L200.58-15.63ZM184.26-17.85L184.26 0 180.21 0 180.21-33.13 184.23-33.13 184.23-25.18 184.11-18.18 184.26-17.85ZM217.11 0.55L217.11 0.55Q211.53 0.55 208.71-2.18 205.88-4.9 205.88-9.98L205.88-9.98 205.88-14.33Q205.88-19.48 208.51-22.26 211.13-25.05 216.18-25.05L216.18-25.05Q219.58-25.05 221.86-23.79 224.13-22.53 225.28-20.2 226.43-17.88 226.43-14.65L226.43-14.65 226.43-13.75Q226.43-12.95 226.37-12.15 226.31-11.35 226.21-10.58L226.21-10.58 222.48-10.58Q222.53-11.78 222.54-12.85 222.56-13.93 222.56-14.83L222.56-14.83Q222.56-17.05 221.84-18.59 221.13-20.13 219.72-20.94 218.31-21.75 216.18-21.75L216.18-21.75Q213.03-21.75 211.46-19.93 209.88-18.1 209.88-14.7L209.88-14.7 209.88-12.38 209.91-11.88 209.91-9.55Q209.91-8.03 210.36-6.8 210.81-5.58 211.77-4.69 212.73-3.8 214.22-3.34 215.71-2.88 217.76-2.88L217.76-2.88Q220.13-2.88 222.18-3.5 224.23-4.13 226.03-5.2L226.03-5.2 225.66-1.7Q224.03-0.68 221.88-0.06 219.73 0.55 217.11 0.55ZM225.36-13.63L225.36-10.58 208.01-10.58 208.01-13.63 225.36-13.63ZM235.68-14.93L235.68-14.93 234.75-18.05 235.75-18.1Q236.55-21.2 238.5-22.99 240.45-24.78 243.68-24.78L243.68-24.78Q244.48-24.78 245.12-24.65 245.75-24.53 246.25-24.35L246.25-24.35 246.5-20.43Q245.88-20.63 245.12-20.75 244.35-20.88 243.43-20.88L243.43-20.88Q240.68-20.88 238.64-19.35 236.6-17.82 235.68-14.93ZM235.88-16.9L235.88 0 231.83 0 231.83-24.4 235.78-24.4 235.58-17.2 235.88-16.9ZM260.73 0.55L260.73 0.55Q255.15 0.55 252.33-2.18 249.5-4.9 249.5-9.98L249.5-9.98 249.5-14.33Q249.5-19.48 252.13-22.26 254.75-25.05 259.8-25.05L259.8-25.05Q263.2-25.05 265.48-23.79 267.75-22.53 268.9-20.2 270.05-17.88 270.05-14.65L270.05-14.65 270.05-13.75Q270.05-12.95 269.99-12.15 269.93-11.35 269.83-10.58L269.83-10.58 266.1-10.58Q266.15-11.78 266.16-12.85 266.18-13.93 266.18-14.83L266.18-14.83Q266.18-17.05 265.46-18.59 264.75-20.13 263.34-20.94 261.93-21.75 259.8-21.75L259.8-21.75Q256.65-21.75 255.08-19.93 253.5-18.1 253.5-14.7L253.5-14.7 253.5-12.38 253.53-11.88 253.53-9.55Q253.53-8.03 253.98-6.8 254.43-5.58 255.39-4.69 256.35-3.8 257.84-3.34 259.33-2.88 261.38-2.88L261.38-2.88Q263.75-2.88 265.8-3.5 267.85-4.13 269.65-5.2L269.65-5.2 269.28-1.7Q267.65-0.68 265.5-0.06 263.35 0.55 260.73 0.55ZM268.98-13.63L268.98-10.58 251.63-10.58 251.63-13.63 268.98-13.63Z" opacity="1" transform="matrix(1,0,0,1,0,0)" fill="#0369a1" class="wordmark-text-0" data-fill-palette-color="primary" id="text-0"></path></svg></g></svg></g></svg></g></svg></g><g transform="matrix(1,0,0,1,431.86987148229144,0)"><svg viewBox="0 0 222.8330453293525 222.8330453293525" height="222.8330453293525" width="222.8330453293525"><g><svg viewBox="0 0 222.8330453293525 222.8330453293525" height="222.8330453293525" width="222.8330453293525"><g transform="matrix(1,0,0,1,58.89427018973142,58.89427018973142)"><svg viewBox="0 0 105.04450494988966 105.04450494988966" height="105.04450494988966" width="105.04450494988966"><g><svg xmlns="http://www.w3.org/2000/svg" xmlns:xlink="http://www.w3.org/1999/xlink" version="1.1" x="0" y="0" viewBox="5 5 90 90" enable-background="new 0 0 100 100" xml:space="preserve" height="105.04450494988966" width="105.04450494988966" class="icon-cg-0" data-fill-palette-color="accent" id="cg-0"><g fill="#0369a1" data-fill-palette-color="accent"><polygon points="10,42.5 10,40 10,37.5 7.5,37.5 7.5,40 7.5,42.5 7.5,45 10,45  " fill="#0369a1" data-fill-palette-color="accent"></polygon><polygon points="12.5,35 12.5,32.5 12.5,30 10,30 10,32.5 10,35 10,37.5 12.5,37.5  " fill="#0369a1" data-fill-palette-color="accent"></polygon><polygon points="15,27.5 15,25 12.5,25 12.5,27.5 12.5,30 15,30  " fill="#0369a1" data-fill-palette-color="accent"></polygon><rect x="15" y="22.5" width="2.5" height="2.5" fill="#0369a1" data-fill-palette-color="accent"></rect><rect x="17.5" y="20" width="2.5" height="2.5" fill="#0369a1" data-fill-palette-color="accent"></rect><rect x="20" y="17.5" width="2.5" height="2.5" fill="#0369a1" data-fill-palette-color="accent"></rect><rect x="22.5" y="15" width="2.5" height="2.5" fill="#0369a1" data-fill-palette-color="accent"></rect><polygon points="30,15 30,12.5 27.5,12.5 25,12.5 25,15 27.5,15  " fill="#0369a1" data-fill-palette-color="accent"></polygon><polygon points="35,12.5 35,10 32.5,10 30,10 30,12.5 32.5,12.5  " fill="#0369a1" data-fill-palette-color="accent"></polygon><polygon points="40,10 42.5,10 42.5,7.5 40,7.5 37.5,7.5 35,7.5 35,10 37.5,10  " fill="#0369a1" data-fill-palette-color="accent"></polygon><polygon points="47.5,7.5 50,7.5 52.5,7.5 55,7.5 57.5,7.5 57.5,5 55,5 52.5,5 50,5 47.5,5 45,5 42.5,5 42.5,7.5 45,7.5  " fill="#0369a1" data-fill-palette-color="accent"></polygon><polygon points="92.5,42.5 92.5,40 92.5,37.5 90,37.5 90,35 90,32.5 90,30 87.5,30 87.5,27.5 87.5,25 85,25 85,22.5 82.5,22.5    82.5,20 80,20 80,17.5 77.5,17.5 77.5,15 75,15 75,12.5 72.5,12.5 70,12.5 70,10 67.5,10 65,10 65,12.5 67.5,12.5 67.5,15    67.5,17.5 67.5,20 67.5,22.5 65,22.5 65,25 65,27.5 65,30 62.5,30 62.5,32.5 62.5,35 62.5,37.5 60,37.5 60,40 60,42.5 57.5,42.5    57.5,45 55,45 52.5,45 52.5,47.5 50,47.5 50,50 47.5,50 45,50 45,52.5 42.5,52.5 40,52.5 40,55 37.5,55 35,55 35,57.5 32.5,57.5    30,57.5 27.5,57.5 27.5,60 25,60 22.5,60 20,60 20,62.5 17.5,62.5 15,62.5 12.5,62.5 12.5,60 10,60 10,57.5 10,55 7.5,55 7.5,57.5    7.5,60 7.5,62.5 7.5,65 10,65 10,67.5 10,70 12.5,70 12.5,72.5 12.5,75 15,75 15,77.5 17.5,77.5 17.5,80 20,80 20,82.5 22.5,82.5    22.5,85 25,85 25,87.5 27.5,87.5 30,87.5 30,90 32.5,90 35,90 35,92.5 37.5,92.5 40,92.5 42.5,92.5 42.5,95 45,95 47.5,95 50,95    52.5,95 55,95 57.5,95 57.5,92.5 60,92.5 62.5,92.5 65,92.5 65,90 67.5,90 70,90 70,87.5 72.5,87.5 75,87.5 75,85 77.5,85    77.5,82.5 80,82.5 80,80 82.5,80 82.5,77.5 85,77.5 85,75 87.5,75 87.5,72.5 87.5,70 90,70 90,67.5 90,65 90,62.5 92.5,62.5    92.5,60 92.5,57.5 92.5,55 95,55 95,52.5 95,50 95,47.5 95,45 92.5,45  " fill="#0369a1" data-fill-palette-color="accent"></polygon><polygon points="60,10 62.5,10 65,10 65,7.5 62.5,7.5 60,7.5 57.5,7.5 57.5,10  " fill="#0369a1" data-fill-palette-color="accent"></polygon><polygon points="7.5,50 7.5,47.5 7.5,45 5,45 5,47.5 5,50 5,52.5 5,55 7.5,55 7.5,52.5  " fill="#0369a1" data-fill-palette-color="accent"></polygon></g></svg></g></svg></g><g id="text-0"><path d="M22.688 81.666v0c-0.262 0.798-0.569 1.509-0.919 2.133-0.35 0.624-0.704 1.164-1.061 1.62-0.366 0.46-0.702 0.833-1.011 1.119v0l-2.222-0.492c0.618-0.536 1.227-1.21 1.826-2.022 0.599-0.812 1.073-1.751 1.424-2.817v0c0.424-1.291 0.511-2.32 0.258-3.087-0.252-0.767-0.833-1.3-1.743-1.599v0l-0.215-0.071c-0.599-0.197-1.128-0.236-1.589-0.118-0.469 0.122-0.928 0.427-1.379 0.914-0.453 0.494-0.954 1.199-1.504 2.117v0c-0.705 1.157-1.385 2.046-2.038 2.667-0.651 0.615-1.338 0.99-2.06 1.126-0.716 0.138-1.525 0.058-2.429-0.239v0l-0.122-0.04c-1.366-0.449-2.272-1.245-2.718-2.386-0.447-1.142-0.372-2.62 0.225-4.435v0c0.392-1.191 0.848-2.167 1.367-2.929 0.52-0.762 1.014-1.359 1.481-1.793v0l2.048 0.456c-0.565 0.498-1.113 1.116-1.646 1.853-0.526 0.739-0.964 1.638-1.313 2.698v0c-0.279 0.848-0.404 1.564-0.374 2.147 0.027 0.589 0.189 1.064 0.485 1.424 0.298 0.354 0.715 0.619 1.252 0.795v0l0.047 0.015c0.542 0.178 1.042 0.215 1.498 0.109 0.456-0.106 0.919-0.399 1.388-0.88 0.471-0.488 1.011-1.226 1.619-2.214v0c0.695-1.126 1.348-1.999 1.961-2.62 0.618-0.619 1.284-0.994 1.997-1.126 0.709-0.14 1.547-0.051 2.514 0.267v0l0.271 0.089c1.503 0.494 2.484 1.356 2.944 2.585 0.462 1.223 0.374 2.801-0.262 4.734z" fill="#0369a1" data-fill-palette-color="accent"></path><path d="M33.041 60.298v0c-0.551 0.871-1.13 1.491-1.737 1.861-0.598 0.368-1.238 0.502-1.921 0.403-0.683-0.098-1.424-0.4-2.224-0.905v0l-7.146-4.523 1.174-1.855 6.922 4.38c0.743 0.47 1.399 0.649 1.968 0.535 0.567-0.123 1.105-0.586 1.614-1.39v0c0.288-0.455 0.515-0.925 0.682-1.41 0.167-0.485 0.274-0.973 0.321-1.463v0l1.503 1.196c-0.04 0.48-0.161 0.997-0.364 1.552-0.198 0.558-0.462 1.098-0.792 1.619zM23.443 50.24l1.395 1.128-5.159 8.153-1.506-0.953zM17.306 52.776l3.367 2.247-1.138 1.798-3.183-2.003z" fill="#0369a1" data-fill-palette-color="accent"></path><path d="M39.147 44.28l-6.023-6.104 1.576-1.556 5.851 5.929c0.498 0.505 1.001 0.875 1.51 1.11 0.509 0.235 1.024 0.299 1.545 0.191 0.525-0.113 1.056-0.434 1.594-0.964v0c0.509-0.503 0.854-1.027 1.033-1.574 0.18-0.546 0.228-1.096 0.144-1.649-0.094-0.553-0.299-1.079-0.617-1.578v0l1.394 0.852-0.343 0.339c0.326 0.527 0.536 1.094 0.629 1.703 0.089 0.613 0.017 1.242-0.214 1.885-0.236 0.648-0.677 1.29-1.322 1.927v0c-0.748 0.738-1.493 1.197-2.237 1.378-0.748 0.176-1.5 0.097-2.254-0.238-0.75-0.33-1.505-0.88-2.266-1.651zM46.562 39.038l-7.061-7.155 1.583-1.563 9.413 9.537-1.584 1.563-2.184-2.353z" fill="#0369a1" data-fill-palette-color="accent"></path><path d="M65.418 30.188v0c-1.398 0.795-2.711 0.968-3.941 0.52-1.224-0.452-2.308-1.508-3.252-3.168v0l-1.095-1.926c-0.951-1.672-1.305-3.158-1.063-4.458 0.242-1.301 1.082-2.36 2.52-3.178v0c0.719-0.409 1.409-0.643 2.07-0.701 0.664-0.053 1.284 0.047 1.859 0.301 0.572 0.249 1.085 0.64 1.54 1.175v0l0.633-0.361 0.439 2.107c-0.418-0.668-0.9-1.157-1.445-1.466-0.548-0.3-1.13-0.433-1.746-0.401-0.616 0.033-1.234 0.226-1.856 0.58v0c-0.987 0.561-1.581 1.277-1.781 2.146-0.191 0.872 0.029 1.864 0.662 2.976v0l1.266 2.226c0.623 1.095 1.358 1.784 2.205 2.064 0.849 0.272 1.768 0.127 2.754-0.434v0c0.588-0.334 1.045-0.745 1.372-1.233 0.321-0.485 0.516-1.011 0.586-1.579 0.075-0.571 0.021-1.145-0.163-1.72v0l1.268 1.114-0.574 0.326c0.184 0.59 0.245 1.194 0.181 1.811-0.064 0.618-0.285 1.204-0.664 1.76-0.385 0.559-0.976 1.065-1.775 1.519zM62.109 10.81l8.996 15.815-1.934 1.1-1.516-2.864-0.39-0.605-2.769-4.87-0.221-0.407-1.935-3.283-2.156-3.791z" fill="#0369a1" data-fill-palette-color="accent"></path><path d="M81.351 8.707l6.371 10.048 1.23-0.318-0.997 0.787 0.917-12.461 2.221-0.575-1.563 19.127-2.183 0.564 0.517-6.459 1.155 0.576-2.45 0.633-7.458-11.343z" fill="#0369a1" data-fill-palette-color="accent"></path><path d="M111.802 18.165v0c-0.84 0.006-1.612-0.058-2.315-0.191-0.703-0.133-1.328-0.296-1.874-0.49-0.553-0.2-1.014-0.4-1.383-0.601v0l-0.241-2.263c0.705 0.415 1.538 0.777 2.498 1.086 0.96 0.309 2.002 0.459 3.124 0.452v0c1.359-0.009 2.361-0.255 3.008-0.739 0.647-0.483 0.967-1.204 0.96-2.163v0l-0.001-0.226c-0.004-0.63-0.136-1.145-0.395-1.544-0.265-0.405-0.701-0.744-1.306-1.015-0.612-0.272-1.441-0.522-2.486-0.751v0c-1.321-0.3-2.381-0.66-3.178-1.082-0.79-0.421-1.365-0.953-1.724-1.593-0.359-0.634-0.541-1.427-0.547-2.379v0l-0.001-0.128c-0.01-1.437 0.456-2.55 1.395-3.337 0.94-0.787 2.365-1.187 4.275-1.201v0c1.254-0.008 2.324 0.112 3.213 0.363 0.888 0.25 1.612 0.527 2.171 0.832v0l0.221 2.086c-0.652-0.376-1.413-0.699-2.281-0.969-0.868-0.263-1.86-0.391-2.976-0.384v0c-0.893 0.006-1.611 0.116-2.154 0.329-0.55 0.214-0.948 0.518-1.195 0.914-0.24 0.395-0.358 0.875-0.355 1.44v0l0.001 0.049c0.004 0.571 0.128 1.056 0.374 1.455 0.246 0.399 0.671 0.744 1.277 1.035 0.612 0.291 1.484 0.568 2.614 0.829v0c1.289 0.3 2.325 0.641 3.109 1.023 0.784 0.389 1.352 0.9 1.703 1.535 0.359 0.628 0.541 1.45 0.549 2.467v0l0.001 0.286c0.011 1.582-0.493 2.786-1.511 3.614-1.012 0.827-2.535 1.248-4.57 1.261z" fill="#0369a1" data-fill-palette-color="accent"></path><path d="M136.963 21.64v0c-0.795-0.201-1.455-0.511-1.98-0.928-0.519-0.409-0.897-0.911-1.132-1.505-0.237-0.588-0.336-1.226-0.297-1.914v0l-0.697-0.176 1.133-1.867c-0.16 0.792-0.149 1.486 0.032 2.08 0.186 0.602 0.516 1.102 0.991 1.501 0.476 0.392 1.055 0.673 1.736 0.846v0c1.094 0.277 2.012 0.171 2.752-0.319 0.748-0.494 1.279-1.359 1.591-2.593v0l0.631-2.491c0.309-1.222 0.256-2.227-0.16-3.017-0.418-0.783-1.177-1.314-2.278-1.592v0c-0.655-0.166-1.267-0.185-1.834-0.059-0.575 0.132-1.085 0.379-1.528 0.741-0.448 0.354-0.806 0.801-1.072 1.343v0l-0.152-1.643 0.63 0.159c0.29-0.556 0.668-1.033 1.133-1.429 0.46-0.398 1.029-0.667 1.708-0.807 0.671-0.135 1.445-0.091 2.323 0.132v0c1.559 0.395 2.626 1.183 3.2 2.364 0.57 1.173 0.62 2.686 0.151 4.538v0l-0.544 2.147c-0.472 1.864-1.243 3.183-2.312 3.955-1.067 0.766-2.409 0.944-4.025 0.534zM132.684 20.648l-1.068 4.219-2.148-0.544 4.45-17.571 2.157 0.546-0.886 3.097-0.14 0.675-1.385 5.469-0.121 0.437z" fill="#0369a1" data-fill-palette-color="accent"></path><path d="M167.678 25.722l-4.164 7.508-1.946-1.079 4.045-7.293c0.35-0.631 0.565-1.222 0.644-1.771 0.082-0.555-0.001-1.067-0.251-1.535-0.245-0.466-0.703-0.885-1.374-1.258v0c-0.62-0.344-1.219-0.522-1.798-0.535-0.575-0.019-1.11 0.094-1.605 0.337-0.495 0.243-0.94 0.586-1.335 1.027v0l0.333-1.617 0.5 0.277c0.413-0.461 0.902-0.821 1.465-1.078 0.563-0.258 1.188-0.369 1.874-0.335 0.683 0.041 1.415 0.278 2.195 0.711v0c0.924 0.513 1.576 1.103 1.956 1.772 0.377 0.674 0.514 1.415 0.412 2.221-0.102 0.807-0.419 1.689-0.951 2.648zM160.427 20.304l-4.757 8.576-1.945-1.08 8.824-15.911 1.938 1.074-2.116 3.815-1.927 3.333z" fill="#0369a1" data-fill-palette-color="accent"></path><path d="M177.722 45.585v0c-1.471-1.415-2.234-2.842-2.29-4.28-0.051-1.433 0.57-2.822 1.862-4.165v0l1.652-1.717c1.311-1.362 2.664-2.078 4.06-2.147 1.405-0.069 2.772 0.536 4.102 1.815v0c0.899 0.865 1.487 1.754 1.764 2.668 0.282 0.909 0.279 1.817-0.01 2.723-0.289 0.906-0.843 1.785-1.662 2.636v0l-0.341 0.355c-0.2 0.208-0.41 0.412-0.629 0.611-0.224 0.195-0.445 0.382-0.665 0.563v0l-1.475-1.42c0.319-0.303 0.615-0.597 0.888-0.881 0.278-0.279 0.53-0.537 0.758-0.773v0c0.564-0.587 0.948-1.174 1.15-1.763 0.207-0.584 0.226-1.163 0.057-1.735-0.164-0.577-0.528-1.136-1.091-1.678v0c-0.828-0.796-1.682-1.154-2.562-1.072-0.88 0.082-1.753 0.572-2.618 1.471v0l-0.888 0.922-0.177 0.199-0.887 0.922c-0.387 0.402-0.678 0.823-0.874 1.263-0.186 0.44-0.266 0.896-0.238 1.37 0.028 0.482 0.179 0.974 0.453 1.474 0.274 0.501 0.681 1.01 1.22 1.529v0c0.629 0.605 1.293 1.085 1.991 1.438 0.703 0.358 1.428 0.622 2.174 0.794v0l-1.48 1.24c-0.69-0.145-1.398-0.407-2.125-0.788-0.722-0.385-1.429-0.91-2.119-1.574zM186.385 43.113l-1.16 1.206-6.868-6.608 1.16-1.206z" fill="#0369a1" data-fill-palette-color="accent"></path><path d="M197.498 56.549v0l1.166-1.356 0.322 0.448c1.115-0.365 2.142-0.423 3.081-0.175 0.93 0.246 1.714 0.866 2.352 1.861v0c0.159 0.249 0.284 0.485 0.372 0.708 0.085 0.218 0.153 0.421 0.203 0.607v0l-1.741 1.281c-0.063-0.232-0.15-0.477-0.26-0.734-0.114-0.262-0.263-0.537-0.447-0.825v0c-0.542-0.845-1.25-1.432-2.124-1.761-0.87-0.323-1.845-0.341-2.924-0.054zM198.468 56.056l-7.815 5.013-1.201-1.873 11.279-7.235 1.175 1.831-3.387 2.032z" fill="#0369a1" data-fill-palette-color="accent"></path><path d="M200.449 82.451v0c-0.678-1.925-0.72-3.543-0.123-4.852 0.598-1.304 1.777-2.265 3.535-2.885v0l2.247-0.792c1.783-0.628 3.313-0.66 4.591-0.094 1.286 0.57 2.236 1.724 2.849 3.464v0c0.415 1.176 0.541 2.235 0.379 3.176-0.156 0.939-0.567 1.748-1.233 2.428-0.665 0.68-1.555 1.216-2.669 1.609v0l-0.464 0.163c-0.272 0.096-0.551 0.184-0.836 0.264-0.287 0.073-0.57 0.142-0.847 0.204v0l-0.681-1.931c0.421-0.128 0.818-0.257 1.189-0.388 0.374-0.125 0.715-0.242 1.025-0.351v0c0.768-0.271 1.374-0.623 1.819-1.058 0.447-0.429 0.724-0.937 0.831-1.525 0.112-0.589 0.039-1.252-0.221-1.989v0c-0.382-1.083-0.984-1.786-1.808-2.108-0.823-0.322-1.823-0.276-2.999 0.138v0l-1.208 0.425-0.247 0.098-1.207 0.426c-0.526 0.185-0.976 0.431-1.348 0.736-0.364 0.309-0.64 0.681-0.828 1.116-0.192 0.443-0.278 0.95-0.258 1.521 0.02 0.571 0.155 1.209 0.403 1.914v0c0.29 0.823 0.668 1.55 1.134 2.18 0.468 0.636 0.996 1.197 1.585 1.685v0l-1.879 0.443c-0.551-0.439-1.066-0.992-1.545-1.658-0.472-0.669-0.868-1.455-1.186-2.359zM209.299 84.134l-1.578 0.557-3.168-8.989 1.579-0.557z" fill="#0369a1" data-fill-palette-color="accent"></path><path d="M9.214 147.615v0c-0.275-0.829-0.461-1.611-0.559-2.345-0.09-0.731-0.125-1.4-0.106-2.009 0.02-0.608 0.07-1.126 0.149-1.553v0l2.151-0.961c-0.182 0.828-0.273 1.764-0.273 2.808 0 1.044 0.184 2.121 0.551 3.229v0c0.442 1.333 1.006 2.243 1.692 2.728 0.686 0.485 1.503 0.57 2.45 0.256v0l0.215-0.071c0.617-0.204 1.082-0.5 1.396-0.888 0.316-0.381 0.509-0.915 0.579-1.602 0.068-0.693 0.051-1.59-0.051-2.69v0c-0.126-1.403-0.109-2.564 0.05-3.481 0.166-0.919 0.505-1.658 1.019-2.215 0.516-0.551 1.244-0.983 2.185-1.294v0l0.121-0.041c1.414-0.469 2.659-0.366 3.733 0.309 1.08 0.672 1.932 1.949 2.555 3.831v0c0.409 1.234 0.63 2.329 0.664 3.286 0.038 0.949-0.005 1.748-0.129 2.397v0l-1.988 0.887c0.167-0.768 0.242-1.619 0.223-2.552-0.015-0.942-0.204-1.962-0.568-3.059v0c-0.291-0.879-0.628-1.552-1.011-2.019-0.391-0.472-0.821-0.765-1.288-0.881-0.467-0.115-0.974-0.082-1.522 0.1v0l-0.056 0.019c-0.561 0.186-0.998 0.462-1.313 0.829-0.32 0.369-0.524 0.903-0.61 1.602-0.088 0.693-0.086 1.64 0.008 2.84v0c0.126 1.362 0.12 2.491-0.019 3.387-0.132 0.894-0.452 1.619-0.96 2.175-0.501 0.553-1.253 0.996-2.256 1.328v0l-0.281 0.093c-1.558 0.516-2.909 0.404-4.053-0.337-1.136-0.737-2.036-2.105-2.698-4.106z" fill="#0369a1" data-fill-palette-color="accent"></path><path d="M21.168 172.055v0c-0.574-0.903-0.901-1.718-0.981-2.444-0.08-0.727 0.077-1.39 0.473-1.992 0.399-0.596 1.012-1.156 1.837-1.68v0l7.406-4.703 1.219 1.92-7.181 4.561c-0.765 0.486-1.217 1.022-1.358 1.608-0.144 0.581 0.05 1.29 0.581 2.127v0c0.299 0.471 0.64 0.892 1.024 1.263 0.383 0.371 0.79 0.688 1.222 0.95v0l-1.787 0.879c-0.428-0.257-0.86-0.601-1.297-1.032-0.431-0.434-0.817-0.919-1.158-1.457zM34.839 167.502l-1.674 0.818-5.368-8.452 1.563-0.993zM35.174 160.63l-3.593 2.165-1.183-1.862 3.287-2.098z" fill="#0369a1" data-fill-palette-color="accent"></path><path d="M36.395 182.925l6.243-6.33 1.626 1.604-6.063 6.148c-0.516 0.523-0.893 1.05-1.131 1.581-0.233 0.535-0.292 1.072-0.177 1.609 0.124 0.538 0.467 1.083 1.028 1.636v0c0.528 0.521 1.076 0.872 1.643 1.054 0.568 0.182 1.139 0.22 1.714 0.114 0.575-0.097 1.114-0.316 1.617-0.659v0l-0.853 1.454-0.35-0.345c-0.545 0.347-1.136 0.572-1.771 0.673-0.631 0.097-1.281 0.032-1.951-0.195-0.675-0.232-1.346-0.678-2.014-1.337v0c-0.776-0.765-1.261-1.535-1.457-2.308-0.196-0.764-0.127-1.54 0.206-2.327 0.338-0.782 0.901-1.573 1.69-2.372zM41.926 190.524l7.315-7.416 1.648 1.625-9.756 9.891-1.647-1.625 2.407-2.3z" fill="#0369a1" data-fill-palette-color="accent"></path><path d="M58.427 206.755v0c-1.449-0.824-2.299-1.899-2.549-3.226-0.246-1.333 0.12-2.861 1.1-4.585v0l1.133-1.994c0.986-1.735 2.119-2.838 3.4-3.311 1.289-0.475 2.682-0.288 4.177 0.562v0c0.742 0.422 1.312 0.912 1.712 1.471 0.405 0.562 0.646 1.168 0.723 1.816 0.08 0.642 0.001 1.307-0.239 1.993v0l0.66 0.375-1.637 1.504c0.374-0.724 0.553-1.411 0.537-2.061-0.019-0.645-0.208-1.235-0.567-1.772-0.357-0.528-0.858-0.975-1.502-1.341v0c-1.021-0.581-1.972-0.728-2.852-0.443-0.879 0.285-1.647 1.004-2.302 2.157v0l-1.308 2.303c-0.649 1.141-0.871 2.163-0.666 3.064 0.205 0.902 0.818 1.643 1.839 2.223v0c0.611 0.347 1.216 0.537 1.817 0.569 0.607 0.035 1.182-0.068 1.727-0.309 0.545-0.241 1.025-0.595 1.442-1.061v0l-0.321 1.72-0.591-0.336c-0.422 0.477-0.926 0.852-1.511 1.123-0.587 0.263-1.231 0.372-1.931 0.33-0.7-0.043-1.464-0.3-2.291-0.771zM73.938 193.534l-9.322 16.4-2.003-1.139 1.745-2.87 0.33-0.661 2.871-5.051 0.252-0.423 1.894-3.453 2.239-3.937z" fill="#0369a1" data-fill-palette-color="accent"></path><path d="M84.687 202.614l0.724 12.318 1.287 0.332-1.303 0.203 7.09-10.839 2.297 0.593-11.017 16.557-2.259-0.584 3.701-5.592 0.763 1.102-2.536-0.655-1.064-14.033z" fill="#0369a1" data-fill-palette-color="accent"></path><path d="M111.718 220.675v0c-0.873-0.006-1.673-0.08-2.401-0.224-0.721-0.149-1.366-0.331-1.935-0.545-0.57-0.214-1.044-0.427-1.424-0.64v0l-0.22-2.344c0.726 0.438 1.583 0.825 2.572 1.159 0.989 0.335 2.067 0.507 3.236 0.515v0c1.405 0.01 2.447-0.233 3.126-0.727 0.679-0.494 1.023-1.24 1.029-2.237v0l0.002-0.227c0.004-0.65-0.126-1.186-0.393-1.608-0.26-0.422-0.704-0.776-1.331-1.062-0.635-0.287-1.489-0.558-2.565-0.815v0c-1.37-0.331-2.463-0.719-3.28-1.165-0.817-0.452-1.408-1.011-1.771-1.676-0.356-0.665-0.531-1.494-0.524-2.485v0l0.001-0.128c0.01-1.49 0.507-2.635 1.49-3.436 0.984-0.807 2.467-1.204 4.449-1.19v0c1.3 0.009 2.408 0.151 3.325 0.426 0.911 0.269 1.654 0.566 2.229 0.892v0l0.202 2.168c-0.673-0.405-1.455-0.748-2.346-1.031-0.897-0.288-1.924-0.437-3.079-0.444v0c-0.925-0.006-1.671 0.097-2.237 0.309-0.573 0.219-0.988 0.531-1.247 0.937-0.259 0.405-0.39 0.897-0.394 1.474v0l-0.001 0.059c-0.004 0.591 0.117 1.094 0.364 1.509 0.247 0.422 0.687 0.786 1.322 1.092 0.628 0.306 1.525 0.608 2.691 0.905v0c1.33 0.318 2.398 0.686 3.202 1.105 0.805 0.413 1.388 0.948 1.752 1.607 0.363 0.652 0.541 1.507 0.533 2.564v0l-0.002 0.295c-0.011 1.641-0.552 2.884-1.62 3.73-1.063 0.839-2.647 1.252-4.755 1.238z" fill="#0369a1" data-fill-palette-color="accent"></path><path d="M140.488 216.699v0c-0.827 0.209-1.578 0.253-2.252 0.132-0.68-0.119-1.273-0.389-1.778-0.81-0.506-0.421-0.908-0.955-1.208-1.604v0l-0.735 0.186 0.119-2.264c0.242 0.799 0.594 1.427 1.055 1.886 0.46 0.453 1.006 0.741 1.64 0.865 0.628 0.126 1.295 0.099 2.001-0.079v0c1.133-0.286 1.918-0.837 2.355-1.651 0.431-0.813 0.485-1.859 0.162-3.138v0l-0.651-2.578c-0.322-1.273-0.865-2.164-1.631-2.675-0.765-0.511-1.718-0.622-2.857-0.334v0c-0.681 0.172-1.249 0.458-1.702 0.857-0.461 0.401-0.805 0.874-1.033 1.418-0.228 0.545-0.331 1.13-0.309 1.754v0l-0.949-1.426 0.649-0.164c-0.01-0.654 0.098-1.274 0.323-1.858 0.229-0.593 0.618-1.118 1.166-1.575 0.542-0.455 1.271-0.798 2.187-1.03v0c1.616-0.408 2.975-0.217 4.075 0.575 1.102 0.798 1.894 2.152 2.377 4.061v0l0.567 2.243c0.487 1.928 0.432 3.506-0.165 4.733-0.591 1.226-1.726 2.051-3.406 2.476zM136.1 217.899l1.104 4.372-2.224 0.562-4.602-18.213 2.234-0.565 0.724 3.27 0.203 0.68 1.432 5.67 0.097 0.463z" fill="#0369a1" data-fill-palette-color="accent"></path><path d="M165.99 195.384l4.312 7.787-2.016 1.116-4.187-7.563c-0.362-0.655-0.763-1.168-1.202-1.54-0.442-0.378-0.935-0.585-1.48-0.621-0.548-0.042-1.173 0.132-1.874 0.519v0c-0.637 0.353-1.122 0.779-1.453 1.278-0.332 0.499-0.526 1.034-0.585 1.606-0.061 0.567-0.005 1.143 0.17 1.73v0l-1.24-1.182 0.526-0.291c-0.185-0.618-0.234-1.243-0.15-1.876 0.082-0.638 0.329-1.248 0.743-1.829 0.408-0.578 1.013-1.09 1.817-1.535v0c0.965-0.534 1.847-0.783 2.648-0.746 0.792 0.034 1.515 0.317 2.169 0.847 0.651 0.54 1.252 1.306 1.802 2.3zM157.249 198.784l4.921 8.889-2.015 1.116-9.138-16.504 2.007-1.111 2.194 3.962 1.863 3.527z" fill="#0369a1" data-fill-palette-color="accent"></path><path d="M187.598 189.264v0c-1.529 1.469-3.038 2.2-4.528 2.193-1.49 0.003-2.904-0.692-4.241-2.083v0l-1.719-1.789c-1.351-1.406-2.035-2.838-2.052-4.296-0.013-1.453 0.672-2.844 2.054-4.172v0c0.932-0.896 1.875-1.469 2.827-1.719 0.957-0.255 1.901-0.215 2.832 0.119 0.922 0.334 1.808 0.944 2.658 1.829v0l0.355 0.369c0.209 0.218 0.409 0.445 0.599 0.681 0.2 0.236 0.385 0.472 0.557 0.707v0l-1.527 1.467c-0.3-0.34-0.59-0.657-0.872-0.951-0.277-0.298-0.534-0.57-0.771-0.816v0c-0.587-0.611-1.179-1.033-1.778-1.268-0.599-0.235-1.199-0.277-1.801-0.126-0.602 0.15-1.194 0.505-1.776 1.064v0c-0.861 0.828-1.267 1.699-1.215 2.615 0.047 0.911 0.518 1.832 1.414 2.765v0l0.914 0.951 0.205 0.199 0.921 0.959c0.4 0.417 0.823 0.734 1.269 0.951 0.446 0.218 0.917 0.32 1.414 0.307 0.497-0.013 1.01-0.152 1.541-0.415 0.53-0.263 1.074-0.663 1.632-1.199v0c0.653-0.628 1.177-1.295 1.572-2.002 0.395-0.716 0.698-1.458 0.908-2.224v0l1.229 1.591c-0.177 0.707-0.479 1.425-0.907 2.155-0.423 0.734-0.995 1.447-1.714 2.138zM185.391 180.188l1.201 1.25-7.129 6.848-1.2-1.249z" fill="#0369a1" data-fill-palette-color="accent"></path><path d="M194.83 166.516v0l-1.786-0.518 0.284-0.496c-0.824-0.89-1.323-1.832-1.495-2.825-0.167-0.99 0.08-1.998 0.742-3.024v0c0.167-0.259 0.334-0.476 0.5-0.65 0.17-0.179 0.337-0.329 0.501-0.45v0l1.959 1.086c-0.194 0.156-0.391 0.346-0.589 0.569-0.195 0.218-0.387 0.473-0.575 0.765v0c-0.565 0.877-0.815 1.798-0.749 2.762 0.066 0.964 0.469 1.891 1.208 2.781zM193.937 165.812l8.095 5.213-1.248 1.937-11.679-7.522 1.215-1.887 3.385 2.309z" fill="#0369a1" data-fill-palette-color="accent"></path><path d="M213.819 147.086v0c-0.71 1.998-1.733 3.327-3.069 3.987-1.332 0.669-2.907 0.68-4.725 0.033v0l-2.338-0.831c-1.837-0.653-3.089-1.628-3.756-2.924-0.661-1.294-0.671-2.844-0.029-4.65v0c0.433-1.218 1.02-2.152 1.759-2.802 0.742-0.656 1.604-1.042 2.586-1.16 0.974-0.113 2.039 0.035 3.196 0.447v0l0.482 0.171c0.284 0.101 0.565 0.215 0.841 0.341 0.284 0.122 0.556 0.25 0.814 0.384v0l-0.709 1.994c-0.42-0.17-0.822-0.324-1.206-0.46-0.381-0.143-0.733-0.271-1.054-0.385v0c-0.798-0.284-1.517-0.397-2.157-0.339-0.641 0.058-1.196 0.289-1.668 0.692-0.471 0.404-0.842 0.986-1.112 1.747v0c-0.4 1.126-0.373 2.086 0.083 2.882 0.449 0.794 1.283 1.407 2.501 1.841v0l1.243 0.442 0.272 0.086 1.253 0.446c0.544 0.194 1.064 0.288 1.56 0.283 0.496-0.005 0.964-0.124 1.403-0.358 0.439-0.234 0.836-0.587 1.192-1.06 0.356-0.472 0.664-1.074 0.923-1.804v0c0.304-0.853 0.474-1.685 0.511-2.493 0.033-0.817-0.028-1.616-0.183-2.395v0l1.811 0.873c0.158 0.711 0.209 1.489 0.152 2.333-0.05 0.846-0.242 1.739-0.576 2.679zM207.786 139.956l1.632 0.58-3.312 9.314-1.633-0.581z" fill="#0369a1" data-fill-palette-color="accent"></path><path d="M3.543 112.282c0-3.839 3.112-6.95 6.951-6.951 3.839 0 6.95 3.112 6.95 6.951 0 3.839-3.112 6.95-6.95 6.95-3.839 0-6.95-3.112-6.951-6.95z" fill="#0369a1" data-fill-palette-color="accent"></path><path d="M205.389 112.282c0-3.839 3.112-6.95 6.95-6.951 3.839 0 6.95 3.112 6.951 6.951 0 3.839-3.112 6.95-6.951 6.95-3.839 0-6.95-3.112-6.95-6.95z" fill="#0369a1" data-fill-palette-color="accent"></path></g><g id="text-1"></g></svg></g></svg></g></svg></g><defs></defs></svg><rect width="395.52" height="134.61819678133747" fill="none" stroke="none" visibility="hidden"></rect></g></svg></g></svg>